<svg width="258" height="352" viewBox="0 0 258 352" fill="none" xmlns="http://www.w3.org/2000/svg">
<g clip-path="url(#clip0_2003_2)">
<path d="M61.2 18.6L96.5 11.1L146 0.5H155.8L161.3 2.5L166.4 9.2L171.5 18.6C173.1 22.1 172.3 25.7 169.5 29.6L160.5 38.6C156.6 42.1 150.3 45.3 142 48.4C126.3 53.1 109 60.6 90.2 69.2C83.5 72.3 77.6 73.5 71.8 72.3C66.7 71.1 60.4 66.8 53.7 58.6C45.9 48 40 37.8 37.2 29.2C35.2 22.9 37.2 19.8 42.3 19.8L61.2 18.6Z" stroke="black" stroke-miterlimit="10"/>
<path d="M131.323 73.2621C132.043 73.2193 132.777 73.4292 133.529 73.8558C134.632 74.4056 136.22 74.7011 138.3 74.7504C140.372 74.7994 142.888 74.6024 145.819 74.2054C152.615 72.99 158.667 74.1976 163.104 77.8021C168.226 81.3213 171.472 85.0273 171.997 89.5424L172 89.5707V93.6H171.703L170.605 98.6283C170.793 100.17 170.225 101.739 169.123 103.323C167.997 104.941 166.281 106.626 164.116 108.388L164.087 108.411L164.056 108.43C153.436 114.742 143.215 119.852 132.994 124.161L132.975 124.169L132.953 124.176L108.754 131.976L108.51 132.054L108.304 131.903L94.3838 121.656L94.3203 121.727L93.9463 121.354L93.8467 121.253L94.168 120.88L93.9277 120.666L113.61 98.6849C117.153 94.1946 119.992 90.2852 122.092 87.017C124.198 83.7397 125.543 81.1362 126.122 79.2533L126.13 79.2279L126.14 79.2045C127.141 76.8507 128.156 75.0732 129.332 74.1019C129.934 73.6054 130.594 73.3056 131.323 73.2621ZM131.383 74.2601C130.906 74.2886 130.442 74.4828 129.969 74.8734C128.997 75.6755 128.062 77.2433 127.066 79.5814C126.44 81.5946 125.04 84.2797 122.934 87.558C120.81 90.8635 117.948 94.8024 114.393 99.3099L114.373 99.3334L95.0537 120.907L108.69 130.945L132.632 123.228C142.791 118.944 152.951 113.863 163.51 107.589C165.632 105.86 167.258 104.252 168.303 102.751C169.352 101.244 169.781 99.8963 169.605 98.6703L169.593 98.5814L169.611 98.4935L170.812 92.9935L170.897 92.6H171V89.6283C170.515 85.5621 167.571 82.0798 162.518 78.6117L162.5 78.601L162.484 78.5873C158.324 75.2012 152.582 74.0108 145.988 75.1918L145.978 75.1937L145.968 75.1957C143.005 75.5974 140.425 75.8002 138.275 75.7494C136.134 75.6987 134.373 75.3957 133.076 74.7474L133.064 74.7406L133.052 74.7338C132.411 74.3678 131.863 74.2316 131.383 74.2601Z" fill="black"/>
<path d="M187 187.774L186.979 187.846L184.079 197.346L183.395 199.591L181.399 226.237L180.2 265.415L180.198 265.446L178.998 278.446L178.994 278.486L178.984 278.525L176.585 287.825L176.512 288.108L176.229 288.184C170.156 289.803 161.192 290.702 147.453 289.398L147.021 289.357L147.001 288.924L145.901 265.424L145.9 265.421L144.701 236.421L144.7 236.411L144.2 212.811V212.81L143.9 197.01L143.893 196.614L144.276 196.516L186.376 185.716L187 185.556V187.774ZM144.907 197.386L145.2 212.79L145.7 236.38L146.9 265.38H146.899L147.979 288.441C161.182 289.658 169.829 288.807 175.689 287.289L178.006 278.313L179.2 265.371L180.4 226.185L180.401 226.174V226.163L182.401 199.463L182.406 199.407L182.422 199.354L183.122 197.055L186 187.628V186.845L144.907 197.386Z" fill="black"/>
<path d="M43.5 293.3L43 297.8L37.5 350.8" stroke="black" stroke-miterlimit="10"/>
<path d="M151.2 288C165 289.3 173.9 288.3 179.8 286.8" stroke="black" stroke-miterlimit="10"/>
<path d="M220.8 173.7C219.6 176.5 215.3 178.8 208.2 180.4L182.7 185.9V186.4L140.7 197.1V196.9C131.3 199.3 125 201.2 121.9 203.2C117.6 205.2 112.5 206.3 105.8 206L105 214.6C104.8 216.1 104.6 217.7 104.4 219.3L107.9 170.5L140.7 161.2H142.3C160.4 155.3 175.3 149 187.8 142.4C190.5 140.4 192.9 140 194.9 141.2C198.1 143.2 203.1 144.3 209.8 144.7C213.7 145.1 217.2 146.3 221.6 149C224.3 150.6 225.9 152.9 226.7 156.5C227.1 159.1 225.1 165 220.8 173.7Z" stroke="black" stroke-miterlimit="10"/>
<path d="M255.9 322.7L250.4 329.8L242.5 336.9C240.9 338.1 239.4 338.5 237.4 338.1L232.3 336.5C211.5 333 190.3 331.4 169.1 332.6C140.4 334.2 111.4 337.3 83.5 341.6L47.4 348.3L38.9 351L44.5 298L44.3 302.3C68.6 296.4 94.1 292.9 122 290.9C134.1 290.1 145.9 289.4 152.6 288.9V288.1C166.4 289.4 175.2 288.4 181.2 286.9L181 287.8L180.9 288.2C187.8 288.5 194 288.8 198.6 289C205.3 289.8 210.8 289.4 215.1 287.4C216 286.4 216.8 285.5 217.6 284.9C218.9 283.8 220 283.1 221 283.1L223.2 284.4L230.4 288.6C234.7 292.1 239.8 294.9 246.5 296.8C250.8 298.8 253.2 301.1 254.4 304.3L256.7 313.3C257.5 316.8 257.1 319.9 255.9 322.7Z" stroke="black" stroke-miterlimit="10"/>
<path d="M108.2 149.5L106.9 161.5L106.6 164H106.8L105.4 199.4C105.3 199.4 105.2 199.4 105.1 199.4L104.3 208C104.3 208 103.9 211.1 103.7 212.7C102.4 221.4 100.4 230.1 98 239.4C96 245.7 93.7 251.9 90.2 257.9C86.7 262.2 81.2 266.5 73.3 270.1C64.7 274.4 59.6 275.6 58.4 274.8C56.4 272 56.4 266.6 59.2 257.9L64.3 237.5C66.3 226.1 66.7 214 66.7 200.6L66.3 169.2L60.4 135.8L58.1 129.1L56.5 122.4C57.7 120 59.3 118.9 62 118.9H68.3L82.8 120.5L89.6 122.6L91.6 123.3L92.4 123.6L96.4 126.5L108.9 133.5L106.8 134.2H106.7C108.9 138.9 109.3 143.6 108.2 149.5Z" stroke="black" stroke-miterlimit="10"/>
<path d="M105.3 201V199.3L106.8 164L106.9 161.5V160.1L105.3 201Z" stroke="black" stroke-miterlimit="10"/>
</g>
<defs>
<clipPath id="clip0_2003_2">
<rect width="257.6" height="351.8" fill="white"/>
</clipPath>
</defs>
</svg>
