<svg width="258" height="352" viewBox="0 0 258 352" fill="none" xmlns="http://www.w3.org/2000/svg">
<path d="M91.8706 130.439C95.3224 139.265 100.184 154.483 103.562 171.479C106.94 188.469 108.844 207.275 106.354 223.263C103.874 239.18 100.938 247.597 98.2265 251.634C96.8717 253.651 95.5199 254.654 94.2367 254.868C92.927 255.086 91.8368 254.461 91.0792 253.573L91.7914 252.978C92.4108 253.705 93.1971 254.106 94.0819 253.958C94.993 253.806 96.1541 253.052 97.4497 251.123C100.04 247.266 102.955 239.026 105.432 223.123C107.899 207.29 106.016 188.604 102.647 171.657C99.2792 154.715 94.4328 139.55 91 130.772L91.8706 130.439ZM144 114.542C139.467 119.343 131.828 126.892 123.636 133.945C115.458 140.987 106.68 147.578 99.8777 150.417L99.5152 149.567C106.167 146.79 114.847 140.29 123.024 133.249C131.188 126.219 138.804 118.693 143.319 113.912L144 114.542Z" stroke="#C6A75E"/>
<path d="M165.46 140.163C159.544 147.819 149.8 154.5 140.068 159.735C130.327 164.975 120.547 168.794 114.507 170.71L114.223 169.829C120.212 167.93 129.938 164.133 139.624 158.923C149.32 153.707 158.925 147.1 164.721 139.6L165.46 140.163Z" stroke="#C6A75E"/>
<path d="M147.991 66.6035C141.424 73.799 126.66 83.8656 109.164 93.8452C91.6511 103.835 71.3405 113.772 53.6304 120.699L53.289 119.84C70.9503 112.931 91.2201 103.015 108.701 93.0441C126.199 83.0627 140.843 73.0591 147.301 65.9837L147.991 66.6035Z" stroke="#C6A75E"/>
<path d="M47.2017 135.977C46.0627 153.165 44.8366 180.683 44.8601 207.364C44.8835 234.068 46.1599 259.861 50 273.646L49.1772 273.912C45.2953 259.976 44.0238 234.049 44.0003 207.365C43.9769 180.658 45.2043 153.118 46.3445 135.912L47.2017 135.977Z" stroke="#C6A75E"/>
<path d="M226.739 239.933C227.303 239.873 227.907 239.928 228.362 240.228C228.598 240.384 228.788 240.603 228.898 240.888C229.006 241.168 229.025 241.484 228.97 241.822C228.862 242.486 228.457 243.301 227.713 244.289C226.218 246.277 223.225 249.139 217.88 253.162C212.527 257.191 204.791 262.403 193.786 269.083C171.676 282.504 143.451 285.787 117.552 284.727C91.6453 283.667 68.0018 278.257 55 274.229L55.2767 273.344C68.2159 277.353 91.7788 282.744 117.591 283.801C143.411 284.858 171.418 281.573 193.299 268.291C204.289 261.62 211.997 256.427 217.317 252.423C222.644 248.414 225.553 245.614 226.967 243.734C227.677 242.79 227.978 242.119 228.051 241.674C228.086 241.459 228.064 241.314 228.028 241.22C227.993 241.13 227.935 241.059 227.847 241.001C227.654 240.873 227.307 240.805 226.838 240.855C226.384 240.903 225.883 241.056 225.446 241.282L225.016 240.459C225.55 240.183 226.162 239.994 226.739 239.933Z" stroke="#C6A75E"/>
<path d="M139.915 164.912C140.68 174.964 142.103 191.018 143.885 206.506C145.669 222.008 147.808 236.901 150 244.656L149.118 244.912C146.902 237.071 144.755 222.102 142.973 206.613C141.189 191.111 139.766 175.044 139 164.982L139.915 164.912Z" stroke="#C6A75E"/>
</svg>
